# xmcd
#
# Track frame offsets: 
#        150
#        10026
#        27830
#        42412
#        54646
#        76353
#        95566
#
# Disc length: 1442 seconds
#
# Revision: 0
# Processed by: cddbd v1.5.2PL0 Copyright (c) Steve Scherf et al.
# Submitted via: ExactAudioCopy v0.99pb5
#
DISCID=4d05a007
DTITLE=David LK Murphy - Goodbye
DYEAR=2006
DGENRE=Folk
TTITLE0=Goodbye
TTITLE1=Gone
TTITLE2=No Matter
TTITLE3=Silent So Long
TTITLE4=I Will Stay
TTITLE5=Hole to Dig
TTITLE6=If I
EXTD=
EXTT0=
EXTT1=
EXTT2=
EXTT3=
EXTT4=
EXTT5=
EXTT6=
PLAYORDER=
